<svg xmlns="http://www.w3.org/2000/svg" width="129" height="130" viewBox="0 0 129 130" fill="none"><path d="M64.004 3.625C30.627 3.625 3.56885 31.1045 3.56885 65.0016C3.56885 98.9015 30.627 126.375 64.004 126.375C97.3824 126.375 124.436 98.9015 124.436 65.0016C124.436 31.1045 97.3824 3.625 64.004 3.625ZM46.157 95.3404V34.6598L93.3664 65.0016L46.157 95.3404Z" fill="white"></path><path d="M64.0043 130C28.7114 130 0 100.843 0 65.0014C0 29.1586 28.7114 0 64.0043 0C99.2957 0 128.006 29.1586 128.006 65.0014C128.006 100.843 99.2957 130 64.0043 130ZM64.0043 7.24977C32.6489 7.24977 7.13824 33.1575 7.13824 65.0014C7.13824 96.8439 32.6489 122.75 64.0043 122.75C95.3597 122.75 120.867 96.8439 120.867 65.0014C120.867 33.1575 95.3597 7.24977 64.0043 7.24977ZM47.2851 98.9652C46.6941 98.9652 46.1002 98.8158 45.5634 98.5157C44.4241 97.8777 43.716 96.6612 43.716 95.3403V34.6597C43.716 33.3388 44.4241 32.1223 45.5648 31.4843C46.704 30.8478 48.0932 30.8913 49.1939 31.5974L96.4033 61.9391C97.4369 62.6032 98.0637 63.7588 98.0637 65.0014C98.0637 66.2441 97.4369 67.3997 96.4033 68.0637L49.1939 98.4026C48.6128 98.7767 47.949 98.9652 47.2851 98.9652ZM50.8542 41.2425V88.7575L87.8203 65.0014L50.8542 41.2425Z" fill="white"></path></svg>