<svg xmlns="http://www.w3.org/2000/svg" xmlns:xlink="http://www.w3.org/1999/xlink" width="160" zoomAndPan="magnify" viewBox="0 0 120 34.499999" height="46" preserveAspectRatio="xMidYMid meet" version="1.0"><defs><g/></defs><g fill="#2e2e2e" fill-opacity="1"><g transform="translate(10.743613, 29.162636)"><g><path d="M 18.515625 -4.71875 L 7.375 -4.71875 L 5.203125 0 L 1.765625 0 L 13.171875 -24.609375 L 23.984375 0 L 20.578125 0 Z M 17.171875 -7.8125 L 13.0625 -17.0625 L 8.796875 -7.8125 Z M 17.171875 -7.8125 "/></g></g></g><g fill="#2e2e2e" fill-opacity="1"><g transform="translate(33.191186, 29.162636)"><g><path d="M 25.21875 -15.5625 L 15.828125 -3.359375 L 6.390625 -15.59375 L 6.390625 0 L 3.21875 0 L 3.21875 -24.71875 L 15.828125 -8.484375 L 28.3125 -24.71875 L 28.3125 0 L 25.21875 0 Z M 25.21875 -15.5625 "/></g></g></g><g fill="#2e2e2e" fill-opacity="1"><g transform="translate(61.475163, 29.162636)"><g><path d="M 18.515625 -4.71875 L 7.375 -4.71875 L 5.203125 0 L 1.765625 0 L 13.171875 -24.609375 L 23.984375 0 L 20.578125 0 Z M 17.171875 -7.8125 L 13.0625 -17.0625 L 8.796875 -7.8125 Z M 17.171875 -7.8125 "/></g></g></g><g fill="#2e2e2e" fill-opacity="1"><g transform="translate(83.922735, 29.162636)"><g><path d="M 6.359375 0 L 3.21875 0 L 3.21875 -24.71875 L 19.046875 -7.625 L 19.046875 -24.34375 L 22.140625 -24.34375 L 22.140625 0.59375 L 6.359375 -16.578125 Z M 6.359375 0 "/></g></g></g></svg>