<svg xmlns="http://www.w3.org/2000/svg" xmlns:xlink="http://www.w3.org/1999/xlink" width="160" zoomAndPan="magnify" viewBox="0 0 120 34.499999" height="46" preserveAspectRatio="xMidYMid meet" version="1.0"><defs><g/></defs><g fill="#2e2e2e" fill-opacity="1"><g transform="translate(7.74906, 29.341201)"><g><path d="M 19.640625 -5 L 7.8125 -5 L 5.515625 0 L 1.859375 0 L 13.96875 -26.109375 L 25.4375 0 L 21.828125 0 Z M 18.21875 -8.296875 L 13.84375 -18.09375 L 9.328125 -8.296875 Z M 18.21875 -8.296875 "/></g></g></g><g fill="#2e2e2e" fill-opacity="1"><g transform="translate(31.559996, 29.341201)"><g><path d="M 26.75 -16.515625 L 16.78125 -3.578125 L 6.78125 -16.546875 L 6.78125 0 L 3.40625 0 L 3.40625 -26.234375 L 16.78125 -9.015625 L 30.046875 -26.234375 L 30.046875 0 L 26.75 0 Z M 26.75 -16.515625 "/></g></g></g><g fill="#2e2e2e" fill-opacity="1"><g transform="translate(61.561813, 29.341201)"><g><path d="M 19.640625 -5 L 7.8125 -5 L 5.515625 0 L 1.859375 0 L 13.96875 -26.109375 L 25.4375 0 L 21.828125 0 Z M 18.21875 -8.296875 L 13.84375 -18.09375 L 9.328125 -8.296875 Z M 18.21875 -8.296875 "/></g></g></g><g fill="#2e2e2e" fill-opacity="1"><g transform="translate(85.372749, 29.341201)"><g><path d="M 6.75 0 L 3.40625 0 L 3.40625 -26.234375 L 20.203125 -8.09375 L 20.203125 -25.84375 L 23.5 -25.84375 L 23.5 0.640625 L 6.75 -17.578125 Z M 6.75 0 "/></g></g></g></svg>