<svg xmlns="http://www.w3.org/2000/svg" xmlns:xlink="http://www.w3.org/1999/xlink" width="194" zoomAndPan="magnify" viewBox="0 0 145.5 34.499999" height="46" preserveAspectRatio="xMidYMid meet" version="1.0"><defs><g/><clipPath id="2697efd031"><path d="M 54.710938 24.507812 L 72.503906 24.507812 L 72.503906 25.539062 L 54.710938 25.539062 Z M 54.710938 24.507812 " clip-rule="nonzero"/></clipPath></defs><g fill="#2e2e2e" fill-opacity="1"><g transform="translate(49.475945, 22.764354)"><g><path d="M 8.65625 -2.203125 L 3.4375 -2.203125 L 2.4375 0 L 0.828125 0 L 6.15625 -11.5 L 11.203125 0 L 9.609375 0 Z M 8.03125 -3.65625 L 6.109375 -7.96875 L 4.109375 -3.65625 Z M 8.03125 -3.65625 "/></g></g></g><g fill="#2e2e2e" fill-opacity="1"><g transform="translate(59.970178, 22.764354)"><g><path d="M 11.78125 -7.28125 L 7.390625 -1.578125 L 2.984375 -7.296875 L 2.984375 0 L 1.5 0 L 1.5 -11.5625 L 7.390625 -3.96875 L 13.234375 -11.5625 L 13.234375 0 L 11.78125 0 Z M 11.78125 -7.28125 "/></g></g></g><g fill="#2e2e2e" fill-opacity="1"><g transform="translate(73.192929, 22.764354)"><g><path d="M 8.65625 -2.203125 L 3.4375 -2.203125 L 2.4375 0 L 0.828125 0 L 6.15625 -11.5 L 11.203125 0 L 9.609375 0 Z M 8.03125 -3.65625 L 6.109375 -7.96875 L 4.109375 -3.65625 Z M 8.03125 -3.65625 "/></g></g></g><g fill="#2e2e2e" fill-opacity="1"><g transform="translate(83.687162, 22.764354)"><g><path d="M 2.96875 0 L 1.5 0 L 1.5 -11.5625 L 8.90625 -3.5625 L 8.90625 -11.375 L 10.34375 -11.375 L 10.34375 0.28125 L 2.96875 -7.75 Z M 2.96875 0 "/></g></g></g><g clip-path="url(#2697efd031)"><path fill="#2e2e2e" d="M 54.710938 24.507812 L 72.503906 24.507812 L 72.503906 25.539062 L 54.710938 25.539062 Z M 54.710938 24.507812 " fill-opacity="1" fill-rule="nonzero"/></g><g fill="#2e2e2e" fill-opacity="1"><g transform="translate(74.050202, 25.46009)"><g><path d="M 0.125 0 L 0.125 -1.046875 L 0.8125 -1.046875 L 0.8125 -0.84375 L 0.359375 -0.84375 L 0.359375 -0.625 L 0.78125 -0.625 L 0.78125 -0.4375 L 0.359375 -0.4375 L 0.359375 -0.203125 L 0.828125 -0.203125 L 0.828125 0 Z M 0.125 0 "/></g></g></g><g fill="#2e2e2e" fill-opacity="1"><g transform="translate(75.324614, 25.46009)"><g><path d="M 0.125 0 L 0.125 -1.046875 L 0.359375 -1.046875 L 0.359375 -0.21875 L 0.828125 -0.21875 L 0.828125 0 Z M 0.125 0 "/></g></g></g><g fill="#2e2e2e" fill-opacity="1"><g transform="translate(76.553994, 25.46009)"><g><path d="M 0.125 0 L 0.125 -1.046875 L 0.8125 -1.046875 L 0.8125 -0.84375 L 0.359375 -0.84375 L 0.359375 -0.625 L 0.78125 -0.625 L 0.78125 -0.4375 L 0.359375 -0.4375 L 0.359375 -0.203125 L 0.828125 -0.203125 L 0.828125 0 Z M 0.125 0 "/></g></g></g><g fill="#2e2e2e" fill-opacity="1"><g transform="translate(77.828406, 25.46009)"><g><path d="M 0.609375 0.015625 C 0.503906 0.015625 0.410156 -0.00390625 0.328125 -0.046875 C 0.242188 -0.0976562 0.175781 -0.160156 0.125 -0.234375 C 0.0820312 -0.316406 0.0625 -0.414062 0.0625 -0.53125 C 0.0625 -0.632812 0.0820312 -0.726562 0.125 -0.8125 C 0.175781 -0.894531 0.242188 -0.957031 0.328125 -1 C 0.410156 -1.050781 0.503906 -1.078125 0.609375 -1.078125 C 0.691406 -1.078125 0.769531 -1.0625 0.84375 -1.03125 C 0.914062 -1 0.976562 -0.953125 1.03125 -0.890625 C 1.082031 -0.835938 1.117188 -0.773438 1.140625 -0.703125 L 0.875 -0.703125 C 0.851562 -0.753906 0.816406 -0.789062 0.765625 -0.8125 C 0.722656 -0.84375 0.671875 -0.859375 0.609375 -0.859375 C 0.554688 -0.859375 0.503906 -0.84375 0.453125 -0.8125 C 0.398438 -0.78125 0.359375 -0.738281 0.328125 -0.6875 C 0.304688 -0.644531 0.296875 -0.59375 0.296875 -0.53125 C 0.296875 -0.46875 0.304688 -0.410156 0.328125 -0.359375 C 0.359375 -0.304688 0.394531 -0.265625 0.4375 -0.234375 C 0.488281 -0.210938 0.550781 -0.203125 0.625 -0.203125 C 0.695312 -0.203125 0.757812 -0.21875 0.8125 -0.25 C 0.863281 -0.289062 0.894531 -0.34375 0.90625 -0.40625 L 0.5625 -0.40625 L 0.5625 -0.59375 L 1.15625 -0.59375 C 1.164062 -0.5 1.15625 -0.414062 1.125 -0.34375 C 1.101562 -0.269531 1.066406 -0.203125 1.015625 -0.140625 C 0.972656 -0.0859375 0.914062 -0.046875 0.84375 -0.015625 C 0.78125 0.00390625 0.703125 0.015625 0.609375 0.015625 Z M 0.609375 0.015625 "/></g></g></g><g fill="#2e2e2e" fill-opacity="1"><g transform="translate(79.418044, 25.46009)"><g><path d="M 0.015625 0 L 0.4375 -1.046875 L 0.671875 -1.046875 L 1.078125 0 L 0.828125 0 L 0.75 -0.1875 L 0.34375 -0.1875 L 0.265625 0 Z M 0.40625 -0.375 L 0.703125 -0.375 L 0.546875 -0.75 Z M 0.40625 -0.375 "/></g></g></g><g fill="#2e2e2e" fill-opacity="1"><g transform="translate(80.878589, 25.46009)"><g><path d="M 0.125 0 L 0.125 -1.046875 L 0.328125 -1.046875 L 0.796875 -0.40625 L 0.796875 -1.046875 L 1.03125 -1.046875 L 1.03125 0 L 0.828125 0 L 0.359375 -0.640625 L 0.359375 0 Z M 0.125 0 "/></g></g></g><g fill="#2e2e2e" fill-opacity="1"><g transform="translate(82.399178, 25.46009)"><g><path d="M 0.375 0 L 0.375 -0.828125 L 0.046875 -0.828125 L 0.046875 -1.046875 L 0.953125 -1.046875 L 0.953125 -0.828125 L 0.609375 -0.828125 L 0.609375 0 Z M 0.375 0 "/></g></g></g><g fill="#2e2e2e" fill-opacity="1"><g transform="translate(83.759152, 25.46009)"><g/></g></g><g fill="#2e2e2e" fill-opacity="1"><g transform="translate(84.476665, 25.46009)"><g><path d="M 0.125 0 L 0.125 -1.046875 L 0.546875 -1.046875 C 0.648438 -1.046875 0.742188 -1.023438 0.828125 -0.984375 C 0.910156 -0.941406 0.972656 -0.878906 1.015625 -0.796875 C 1.066406 -0.722656 1.09375 -0.632812 1.09375 -0.53125 C 1.09375 -0.425781 1.066406 -0.332031 1.015625 -0.25 C 0.972656 -0.164062 0.910156 -0.101562 0.828125 -0.0625 C 0.742188 -0.0195312 0.648438 0 0.546875 0 Z M 0.359375 -0.21875 L 0.53125 -0.21875 C 0.59375 -0.21875 0.644531 -0.226562 0.6875 -0.25 C 0.738281 -0.28125 0.773438 -0.316406 0.796875 -0.359375 C 0.828125 -0.410156 0.84375 -0.46875 0.84375 -0.53125 C 0.84375 -0.59375 0.828125 -0.644531 0.796875 -0.6875 C 0.773438 -0.726562 0.738281 -0.757812 0.6875 -0.78125 C 0.644531 -0.8125 0.59375 -0.828125 0.53125 -0.828125 L 0.359375 -0.828125 Z M 0.359375 -0.21875 "/></g></g></g><g fill="#2e2e2e" fill-opacity="1"><g transform="translate(86.000256, 25.46009)"><g><path d="M 0.125 0 L 0.125 -1.046875 L 0.8125 -1.046875 L 0.8125 -0.84375 L 0.359375 -0.84375 L 0.359375 -0.625 L 0.78125 -0.625 L 0.78125 -0.4375 L 0.359375 -0.4375 L 0.359375 -0.203125 L 0.828125 -0.203125 L 0.828125 0 Z M 0.125 0 "/></g></g></g><g fill="#2e2e2e" fill-opacity="1"><g transform="translate(87.274668, 25.46009)"><g><path d="M 0.484375 0.015625 C 0.398438 0.015625 0.328125 0.00390625 0.265625 -0.015625 C 0.203125 -0.046875 0.148438 -0.0859375 0.109375 -0.140625 C 0.078125 -0.191406 0.0625 -0.253906 0.0625 -0.328125 L 0.296875 -0.328125 C 0.296875 -0.285156 0.3125 -0.25 0.34375 -0.21875 C 0.382812 -0.1875 0.429688 -0.171875 0.484375 -0.171875 C 0.535156 -0.171875 0.578125 -0.179688 0.609375 -0.203125 C 0.640625 -0.222656 0.65625 -0.25 0.65625 -0.28125 C 0.65625 -0.320312 0.632812 -0.351562 0.59375 -0.375 C 0.5625 -0.394531 0.507812 -0.414062 0.4375 -0.4375 C 0.3125 -0.457031 0.21875 -0.492188 0.15625 -0.546875 C 0.101562 -0.609375 0.078125 -0.679688 0.078125 -0.765625 C 0.078125 -0.859375 0.109375 -0.929688 0.171875 -0.984375 C 0.242188 -1.046875 0.34375 -1.078125 0.46875 -1.078125 C 0.550781 -1.078125 0.625 -1.0625 0.6875 -1.03125 C 0.75 -1 0.796875 -0.957031 0.828125 -0.90625 C 0.859375 -0.851562 0.875 -0.789062 0.875 -0.71875 L 0.640625 -0.71875 C 0.640625 -0.769531 0.625 -0.804688 0.59375 -0.828125 C 0.5625 -0.859375 0.519531 -0.875 0.46875 -0.875 C 0.414062 -0.875 0.375 -0.863281 0.34375 -0.84375 C 0.320312 -0.820312 0.3125 -0.796875 0.3125 -0.765625 C 0.3125 -0.734375 0.328125 -0.707031 0.359375 -0.6875 C 0.390625 -0.664062 0.445312 -0.644531 0.53125 -0.625 C 0.65625 -0.59375 0.742188 -0.550781 0.796875 -0.5 C 0.859375 -0.445312 0.890625 -0.378906 0.890625 -0.296875 C 0.890625 -0.191406 0.851562 -0.113281 0.78125 -0.0625 C 0.707031 -0.0078125 0.609375 0.015625 0.484375 0.015625 Z M 0.484375 0.015625 "/></g></g></g><g fill="#2e2e2e" fill-opacity="1"><g transform="translate(88.601617, 25.46009)"><g><path d="M 0.125 0 L 0.125 -1.046875 L 0.359375 -1.046875 L 0.359375 0 Z M 0.125 0 "/></g></g></g><g fill="#2e2e2e" fill-opacity="1"><g transform="translate(89.457229, 25.46009)"><g><path d="M 0.609375 0.015625 C 0.503906 0.015625 0.410156 -0.00390625 0.328125 -0.046875 C 0.242188 -0.0976562 0.175781 -0.160156 0.125 -0.234375 C 0.0820312 -0.316406 0.0625 -0.414062 0.0625 -0.53125 C 0.0625 -0.632812 0.0820312 -0.726562 0.125 -0.8125 C 0.175781 -0.894531 0.242188 -0.957031 0.328125 -1 C 0.410156 -1.050781 0.503906 -1.078125 0.609375 -1.078125 C 0.691406 -1.078125 0.769531 -1.0625 0.84375 -1.03125 C 0.914062 -1 0.976562 -0.953125 1.03125 -0.890625 C 1.082031 -0.835938 1.117188 -0.773438 1.140625 -0.703125 L 0.875 -0.703125 C 0.851562 -0.753906 0.816406 -0.789062 0.765625 -0.8125 C 0.722656 -0.84375 0.671875 -0.859375 0.609375 -0.859375 C 0.554688 -0.859375 0.503906 -0.84375 0.453125 -0.8125 C 0.398438 -0.78125 0.359375 -0.738281 0.328125 -0.6875 C 0.304688 -0.644531 0.296875 -0.59375 0.296875 -0.53125 C 0.296875 -0.46875 0.304688 -0.410156 0.328125 -0.359375 C 0.359375 -0.304688 0.394531 -0.265625 0.4375 -0.234375 C 0.488281 -0.210938 0.550781 -0.203125 0.625 -0.203125 C 0.695312 -0.203125 0.757812 -0.21875 0.8125 -0.25 C 0.863281 -0.289062 0.894531 -0.34375 0.90625 -0.40625 L 0.5625 -0.40625 L 0.5625 -0.59375 L 1.15625 -0.59375 C 1.164062 -0.5 1.15625 -0.414062 1.125 -0.34375 C 1.101562 -0.269531 1.066406 -0.203125 1.015625 -0.140625 C 0.972656 -0.0859375 0.914062 -0.046875 0.84375 -0.015625 C 0.78125 0.00390625 0.703125 0.015625 0.609375 0.015625 Z M 0.609375 0.015625 "/></g></g></g><g fill="#2e2e2e" fill-opacity="1"><g transform="translate(91.046867, 25.46009)"><g><path d="M 0.125 0 L 0.125 -1.046875 L 0.328125 -1.046875 L 0.796875 -0.40625 L 0.796875 -1.046875 L 1.03125 -1.046875 L 1.03125 0 L 0.828125 0 L 0.359375 -0.640625 L 0.359375 0 Z M 0.125 0 "/></g></g></g></svg>