<svg id="visual" viewBox="0 0 900 600" width="900" height="600" xmlns="http://www.w3.org/2000/svg" xmlns:xlink="http://www.w3.org/1999/xlink" version="1.1"><rect x="0" y="0" width="900" height="600" fill="#ffffff"></rect><defs><linearGradient id="grad1_0" x1="33.3%" y1="100%" x2="100%" y2="0%"><stop offset="20%" stop-color="#ffffff" stop-opacity="1"></stop><stop offset="80%" stop-color="#ffffff" stop-opacity="1"></stop></linearGradient></defs><defs><linearGradient id="grad2_0" x1="0%" y1="100%" x2="66.7%" y2="0%"><stop offset="20%" stop-color="#ffffff" stop-opacity="1"></stop><stop offset="80%" stop-color="#ffffff" stop-opacity="1"></stop></linearGradient></defs><g transform="translate(900, 600)"><path d="M-243.4 0C-239.9 -47.6 -236.4 -95.1 -210.8 -121.7C-185.1 -148.3 -137.3 -153.8 -98.5 -170.6C-59.7 -187.4 -29.8 -215.4 0 -243.4L0 0Z" fill="#6e54f4"></path></g><g transform="translate(0, 0)"><path d="M243.4 0C239.3 46.5 235.2 93 210.8 121.7C186.3 150.3 141.5 161.1 103 178.4C64.5 195.7 32.2 219.5 0 243.4L0 0Z" fill="#6e54f4"></path></g></svg>